<svg xmlns="http://www.w3.org/2000/svg" width="130" height="68" viewBox="0 0 130 68">
  <g id="Groupe_1" data-name="Groupe 1" transform="translate(-277 -499)">
    <path id="Soustraction_1" data-name="Soustraction 1" d="M38.418,68H29.582l-1.891-4.727a29.733,29.733,0,0,1-9.937-4.113l-4.676,2L6.832,54.918,8.84,50.246a29.734,29.734,0,0,1-4.118-9.938L0,38.418V29.582l4.727-1.891A29.7,29.7,0,0,1,8.84,17.754l-2-4.676,6.247-6.246L17.754,8.84a29.721,29.721,0,0,1,9.937-4.117L29.582,0h8.836l1.89,4.727A29.71,29.71,0,0,1,50.246,8.84l4.675-2,2.037,2.037-1.379,1.45L54.464,9.207l-4.37,1.871-.454-.305A27.69,27.69,0,0,0,39.363,6.52l-.535-.1L37.063,2H30.937L29.172,6.414l-.535.105a27.692,27.692,0,0,0-10.278,4.253l-.453.305L13.539,9.2,9.207,13.535l1.871,4.371-.305.453A27.693,27.693,0,0,0,6.52,28.637l-.1.535L2,30.938v6.125l4.414,1.765.105.535A27.691,27.691,0,0,0,10.773,49.64l.305.454L9.2,54.461l4.332,4.333,4.371-1.871.453.3a27.709,27.709,0,0,0,10.278,4.254l.535.1L30.937,66h6.125l1.765-4.414.535-.105A27.707,27.707,0,0,0,49.64,57.226l.454-.3L54.461,58.8l1.322-1.322,1.494,1.334-2.359,2.359-4.672-2.007a29.731,29.731,0,0,1-9.938,4.117L38.419,68ZM34,64a1,1,0,1,1,1-1A1,1,0,0,1,34,64Zm0-6a1,1,0,1,1,1-1A1,1,0,0,1,34,58Zm4.484-.441h0a1,1,0,0,1-.191-1.981,1.145,1.145,0,0,1,.2-.019,1.007,1.007,0,0,1,.977.8,1,1,0,0,1-.785,1.175A1.009,1.009,0,0,1,38.484,57.559Zm-8.965,0a1.008,1.008,0,0,1-.2-.02,1.007,1.007,0,0,1-.789-1.175,1.012,1.012,0,0,1,.988-.8h.025a.783.783,0,0,1,.164.019.993.993,0,0,1,.641.427,1,1,0,0,1-.829,1.555ZM42.8,56.248a1,1,0,0,1-.383-1.924.942.942,0,0,1,.362-.074h.029a1,1,0,0,1-.007,2Zm-17.606,0a1,1,0,0,1-.921-1.385.985.985,0,0,1,.913-.613h.028a.954.954,0,0,1,.363.074,1,1,0,0,1-.383,1.924Zm-11.706-.743a1,1,0,0,1,0-2h.016a1.011,1.011,0,0,1,.691.292,1,1,0,0,1-.707,1.709Zm33.289-1.383a1,1,0,0,1-.832-.447,1,1,0,0,1,.274-1.383,1.011,1.011,0,0,1,.57-.172.989.989,0,0,1,.816.445,1,1,0,0,1-.274,1.387A.993.993,0,0,1,46.781,54.123Zm-25.559,0a1,1,0,0,1-.555-.169,1,1,0,0,1,.551-1.828h.023a.956.956,0,0,1,.539.167,1,1,0,0,1,.274,1.383A1,1,0,0,1,21.222,54.123Zm-3.486-2.861a.983.983,0,0,1-.7-.293,1,1,0,0,1,0-1.414.989.989,0,0,1,.7-.293h.013a1,1,0,0,1,.691,1.707A.983.983,0,0,1,17.736,51.262Zm-2.859-3.485a1,1,0,0,1-.553-1.832.951.951,0,0,1,.544-.168h.022a.984.984,0,0,1,.816.441,1.01,1.01,0,0,1,.153.754.988.988,0,0,1-.427.636A1,1,0,0,1,14.877,47.777ZM12.75,43.8h0a1,1,0,0,1-.922-.617,1.007,1.007,0,0,1,.544-1.309A1,1,0,1,1,12.75,43.8Zm-1.307-4.313a1,1,0,0,1-.982-.8,1,1,0,0,1,.789-1.18,1.071,1.071,0,0,1,.2-.015,1,1,0,0,1,.973.8.97.97,0,0,1-.149.75.986.986,0,0,1-.636.426A1.011,1.011,0,0,1,11.443,39.487ZM11,35a1,1,0,1,1,1-1A1,1,0,0,1,11,35ZM5,35a1,1,0,1,1,1-1A1,1,0,0,1,5,35Zm6.439-4.485a1.015,1.015,0,0,1-.193-.019,1,1,0,0,1,.191-1.981h.032a.808.808,0,0,1,.168.015,1,1,0,0,1-.2,1.984ZM12.75,26.2a1,1,0,0,1-.922-1.385.987.987,0,0,1,.913-.613h.028a.963.963,0,0,1,.364.074A1,1,0,0,1,12.75,26.2Zm2.128-3.977a1,1,0,0,1-.831-1.553,1,1,0,0,1,.836-.449h.011a1.012,1.012,0,0,1,.966.809,1,1,0,0,1-.982,1.193Zm2.858-3.487a1,1,0,0,1,0-2h.016a1,1,0,0,1,.691.3,1,1,0,0,1-.7,1.7Zm3.485-2.859a1,1,0,0,1-.554-1.832.956.956,0,0,1,.545-.168h.022a.986.986,0,0,1,.816.441,1,1,0,0,1,.152.754.986.986,0,0,1-.426.636A1,1,0,0,1,21.222,15.875Zm25.557,0a1,1,0,0,1,0-2H46.8a1,1,0,0,1-.019,2Zm-33.284-1.38a1,1,0,0,1-.709-1.708,1.013,1.013,0,0,1,.706-.289h.017a.989.989,0,0,1,.695.289,1,1,0,0,1-.709,1.708Zm11.7-.745a1,1,0,0,1-.381-1.92.955.955,0,0,1,.386-.077.994.994,0,0,1,.918,1.382,1,1,0,0,1-.923.615Zm17.6,0a.988.988,0,0,1-.38-.076,1.013,1.013,0,0,1-.543-.539,1.03,1.03,0,0,1,0-.769,1,1,0,0,1,.92-.613h.028a.941.941,0,0,1,.36.074,1,1,0,0,1-.382,1.924Zm-4.309-1.306a1.008,1.008,0,0,1-.2-.02,1,1,0,0,1,.2-1.98h.024a.825.825,0,0,1,.168.019,1,1,0,0,1-.191,1.981Zm-8.983,0h0a1,1,0,0,1-.192-1.981,1.145,1.145,0,0,1,.2-.019,1,1,0,0,1,.192,1.98A1,1,0,0,1,29.509,12.442ZM34,12a1,1,0,1,1,1-1A1,1,0,0,1,34,12Zm0-6a1,1,0,1,1,1-1A1,1,0,0,1,34,6Z" transform="translate(277 499)" fill="#fff"/>
    <text id="TsaR_API" data-name="TsaR API" transform="translate(306 540)" fill="#fff" font-size="20" font-family="Days"><tspan x="0" y="0">TsaR API</tspan></text>
  </g>
</svg>
